<?xml version="1.0" encoding="utf-8"?>
<!-- Generator: Adobe Illustrator 21.0.2, SVG Export Plug-In . SVG Version: 6.00 Build 0)  -->
<svg version="1.1" id="Layer_1" xmlns="http://www.w3.org/2000/svg" xmlns:xlink="http://www.w3.org/1999/xlink" x="0px" y="0px"
	 viewBox="0 0 921.8 496" style="enable-background:new 0 0 921.8 496;" xml:space="preserve">
<style type="text/css">
	.st0{fill:#231F20;}
	.st1{fill:none;stroke:#231F20;stroke-width:3;stroke-linecap:round;stroke-miterlimit:10;}
	.st2{fill:none;stroke:#231F20;stroke-width:4;stroke-linecap:round;stroke-miterlimit:10;}
	.st3{fill:none;stroke:#231F20;stroke-linecap:round;stroke-linejoin:round;stroke-miterlimit:10;}
	.st4{fill:#FFFFFF;stroke:#231F20;stroke-linecap:round;stroke-linejoin:round;stroke-miterlimit:10;}
</style>
<g>
	<path class="st0" d="M206,2.3l1.5-0.3l1.3-0.2l2.6-0.4c1.7-0.2,3.4-0.4,5.2-0.6c3.4-0.3,6.9-0.6,10.3-0.7
		c6.8-0.3,13.7-0.2,20.5,0.2c13.6,0.8,27.2,3.1,40.4,6.9c13.2,3.8,25.9,9.2,37.7,16.3c11.8,7,22.6,15.7,32,25.6
		c9.4,9.9,17.5,21.1,24.1,32.8c6.7,11.8,12,24.3,16.2,37c4.2,12.7,7.4,25.8,9.7,38.9c2.3,13.1,3.8,26.3,4.7,39.5
		c1.7,26.5,1,52.9-1.1,79.2c-2.2,26.3-5.8,52.3-10.5,78.2l-1.8,9.7c-0.6,3.3-1.2,6.5-1.9,9.8c-1.5,6.2-2.7,12.7-3.6,19.1
		c-1.9,12.9-2.8,25.9-2.1,38.8c0.3,6.5,1.1,12.9,2.4,19.2c1.3,6.3,3.3,12.5,6.2,18.3c2.8,5.8,6.6,11.1,11.4,15.4
		c4.8,4.3,10.5,7.6,16.6,9.6c0.3,0.1,0.5,0.5,0.4,0.8c-0.1,0.3-0.5,0.5-0.8,0.4c-6.3-2-12.3-5.1-17.4-9.5
		c-5.1-4.4-9.1-9.8-12.3-15.7c-3.1-5.9-5.3-12.2-6.9-18.7c-1.6-6.5-2.5-13-3-19.6c-1-13.2-0.4-26.5,1.1-39.6
		c0.8-6.6,1.8-13.1,3.2-19.6l1.6-9.6l1.5-9.7c4-25.8,7-51.8,8.5-77.8c1.5-26,1.5-52.1-0.8-77.9c-0.6-6.5-1.3-12.9-2.2-19.3
		c-0.9-6.4-2-12.8-3.3-19.1c-2.6-12.6-5.9-25.1-10.2-37.1c-4.3-12-9.7-23.7-16.2-34.5c-6.5-10.9-14.2-20.9-23-29.8
		c-8.8-8.9-18.9-16.5-29.7-22.6c-10.9-6.1-22.6-10.8-34.7-13.9c-12.1-3.2-24.6-4.9-37.1-5.4c-6.3-0.2-12.6-0.1-18.8,0.3
		c-3.1,0.2-6.2,0.5-9.3,0.9c-1.5,0.2-3.1,0.4-4.6,0.6l-2.2,0.4l-1.1,0.2l-1,0.2l-0.3,0.1c-4.6,0.9-9.1-2-10-6.6
		c-0.9-4.6,2-9.1,6.6-10C205.9,2.3,206,2.3,206,2.3z"/>
</g>
<g>
	<path class="st0" d="M182,81.3c-5.1-0.6-10.3,0.3-15.5,2.8c-5.2,2.5-10.3,6.4-15,11.1c-4.7,4.6-9.1,9.9-13.3,15.5
		c-2.1,2.8-4.2,5.7-6.3,8.7l-3.3,4.5c-1.2,1.5-2.3,3.1-3.8,4.8c-0.3,0.4-0.9,1-1.1,1.2l-1,1l-2,2c-1.4,1.3-2.7,2.6-4.2,3.9
		c-2.8,2.6-5.7,5.1-8.7,7.4c-3,2.4-6.1,4.6-9.3,6.7c-0.8,0.5-1.6,1.1-2.4,1.6l-2.3,1.5c-1.5,0.9-3,1.9-4.5,2.9
		c-12,7.8-23.8,16.2-35.4,24.8l0,0l1.2-1.3c-1.8,3-3.8,6-5.4,8.7c-1.6,2.7-2.9,5.6-4.3,8.8c-2.8,6.2-5.3,12.4-7.6,18.8
		c-2.3,6.4-4.3,12.8-5.9,19.3c-0.8,3.3-1.6,6.5-2.3,9.8c-0.3,1.6-0.6,3.3-0.9,4.9c-0.2,1.6-0.5,3.3-0.7,4.9
		c-0.8,6.6-1.1,13.2-0.9,19.9c0.2,6.6,0.9,13.3,2.2,19.8c1.2,6.5,2.9,13.1,5.1,19.2c2.3,6.2,5.2,12.1,8.8,17.6
		c7,11.2,16.5,20.7,27.3,28.5c10.8,7.8,22.9,13.9,35.6,18.5c12.7,4.6,25.9,7.8,39.3,10.3c13.4,2.5,26.9,4.2,40.5,4.7
		c13.6,0.5,27.1-0.3,40.5-2.6c13.4-2.3,26.5-5.8,39.4-10.3c12.9-4.4,25.6-9.6,37.7-15.8c12.1-6.2,23.7-13.5,34.2-22
		c5.3-4.3,10.3-8.8,14.7-13.9c4.5-5,8.5-10.5,12-16.2c7-11.5,11.7-24.4,14.3-37.7c2.6-13.3,3.2-27,2.1-40.6
		c-0.6-6.8-1.6-13.5-3-20.2c-1.4-6.7-3.2-13.2-5.4-19.7l0,0l0.9,0.9c-8.2-3.4-16.1-7.2-24-11.2c-7.9-4-15.6-8.2-23.2-12.6
		c-15.3-8.8-30.1-18.4-44.5-28.8c-7.2-5.1-14.2-10.6-21.1-16.1c-6.9-5.5-13.7-11.3-20.3-17.2c-13.2-11.8-25.8-24.4-37.6-37.7
		c-2.2-2.5-2-6.3,0.5-8.5c2.5-2.2,6.3-2,8.5,0.5c0.1,0.1,0.1,0.1,0.2,0.2l0,0c10.9,13.4,22.7,26.2,35.1,38.4
		c6.2,6,12.6,12,19.2,17.7c6.6,5.7,13.2,11.3,20.1,16.7c13.7,10.8,27.9,20.9,42.7,30.3c7.4,4.7,14.9,9.2,22.5,13.5
		c7.6,4.3,15.4,8.4,23.2,12l0.1,0c0.4,0.2,0.7,0.5,0.8,0.9l0,0c9.2,26.1,12.2,54.7,7.2,82.2c-2.5,13.7-7.3,27.1-14.4,39.2
		c-3.6,6-7.7,11.8-12.3,17.1c-4.6,5.3-9.8,10.1-15.1,14.5c-10.7,8.9-22.5,16.5-34.8,23c-12.3,6.5-25.2,11.8-38.2,16.5
		c-13.1,4.6-26.5,8.5-40.3,10.9c-13.7,2.5-27.8,3.5-41.7,3.1c-14-0.3-27.8-1.9-41.5-4.3c-13.7-2.4-27.3-5.5-40.6-10.2
		c-13.2-4.7-26-11-37.6-19.1c-11.6-8.2-21.9-18.4-29.7-30.4c-3.9-6-7.2-12.4-9.8-19.1c-2.6-6.8-4.4-13.6-5.7-20.6
		c-1.4-7-2.2-14-2.5-21.1c-0.3-7.1-0.1-14.2,0.7-21.3c0.2-1.8,0.5-3.5,0.7-5.3c0.3-1.8,0.6-3.5,0.9-5.3c0.6-3.5,1.4-6.9,2.3-10.3
		c1.7-6.8,3.7-13.6,6-20.2c2.3-6.6,4.9-13.2,7.7-19.6c1.4-3.2,2.9-6.5,4.7-9.8c1.9-3.3,3.7-6,5.4-8.9c0.3-0.5,0.6-0.9,1.1-1.2
		l0.1-0.1l0,0c11.2-9.5,22.5-18.7,34.3-27.6c1.5-1.1,3-2.2,4.5-3.3l2.2-1.6c0.7-0.5,1.4-1,2.1-1.6c2.7-2.1,5.4-4.3,7.9-6.6
		c2.6-2.3,5-4.7,7.4-7.2c1.2-1.2,2.4-2.5,3.5-3.8l1.7-2l0.8-1c0.3-0.4,0.4-0.5,0.6-0.8c0.8-1.1,1.8-2.5,2.7-3.9l2.9-4.5
		c1.9-3.1,3.9-6.2,6-9.3c4.2-6.2,8.7-12.5,14-18.4c5.3-5.9,11.5-11.5,19.2-15.8c3.8-2.1,8-3.9,12.5-5c4.5-1.1,9.3-1.6,14-1.3l0.2,0
		c5.8,0.4,10.2,5.3,9.8,11.1c-0.4,5.8-5.3,10.2-11.1,9.8C182.4,81.4,182.2,81.3,182,81.3z"/>
</g>
<circle class="st0" cx="97.6" cy="239.8" r="17.6"/>
<circle class="st0" cx="287.8" cy="236.6" r="17.6"/>
<g>
	<path class="st0" d="M181.9,205.4c1.1,9.7,1.4,19.5,1.3,29.3c-0.1,9.8-0.7,19.5-1.6,29.3c-0.3,2.4-0.5,4.9-0.8,7.3l-1,7.3l-1.2,7.2
		c-0.4,2.2-0.3,4.6,0.1,6.8c0.4,2.2,1.3,4.3,2.8,5.8c0.7,0.7,1.6,1.3,2.6,1.7c1,0.4,2.1,0.6,3.1,0.7c2.2,0.1,4.5-0.3,6.8-0.9
		c2.3-0.6,4.5-1.5,6.6-2.4l0,0c0.8-0.3,1.6,0,2,0.8s0,1.6-0.8,2c0,0,0,0,0,0c-4.6,1.9-9.5,3.6-14.8,3.3c-1.3-0.1-2.7-0.4-4-0.9
		c-1.3-0.5-2.5-1.3-3.5-2.3c-2-2-3-4.6-3.4-7.2c-0.4-2.6-0.5-5.1,0-7.7l1.3-7.2l1.1-7.2c0.4-2.4,0.6-4.8,0.9-7.2
		c1.1-9.6,1.8-19.3,2.1-29.1c0.2-9.7,0.1-19.5-0.9-29.1l0,0c0-0.3,0.2-0.6,0.5-0.7C181.6,204.8,181.9,205,181.9,205.4z"/>
</g>
<path class="st1" d="M285.3,332.5c-116.9,40.8-186.5,3.2-186.5,3.2l40.6-0.6c7.6-0.1,24.7,0.6,32.2,2.1l10.6,2.2
	c6.2,1.3,12.6,1.1,18.7-0.4l19.9-3"/>
<g>
	<path class="st0" d="M129.7,352.3c4.5,1.6,9.2,3,13.9,4.2c4.7,1.2,9.4,2.2,14.2,3c9.5,1.6,19.2,2.5,28.8,2.6
		c4.8,0,9.6-0.2,14.4-0.6c4.8-0.5,9.6-1,14.3-2c4.7-0.9,9.4-2,14.1-3.4c4.7-1.3,9.2-3,13.7-4.7l0,0c0.5-0.2,1,0.1,1.2,0.5
		c0.2,0.4,0,0.9-0.4,1.1c-8.8,4.5-18.1,7.9-27.8,10l-3.6,0.8l-3.7,0.6c-1.2,0.2-2.4,0.4-3.7,0.5c-1.2,0.1-2.5,0.3-3.7,0.4
		c-4.9,0.5-9.9,0.7-14.8,0.7c-4.9,0-9.9-0.3-14.8-0.9c-4.9-0.5-9.8-1.3-14.6-2.3c-4.8-1-9.6-2.2-14.3-3.7c-4.7-1.5-9.3-3.1-13.9-5.2
		c-0.5-0.2-0.7-0.8-0.4-1.2C128.8,352.3,129.3,352.1,129.7,352.3L129.7,352.3z"/>
</g>
<path class="st2" d="M270.2,235c0.4-4,2.2-8.3,4-10.6c2.5-3.4,6.1-6.2,10.1-7.5c20.1-6.6,41.1,12.3,42.1,12.8l4.4-3.9"/>
<g>
	<path class="st0" d="M141.7,206.6c-1.7-0.4-3.6-0.8-5.5-1.2c-1.9-0.4-3.8-0.7-5.7-1c-3.8-0.6-7.6-1.1-11.5-1.5
		c-7.7-0.8-15.4-1-23-0.6c-3.8,0.2-7.6,0.7-11.4,1.3c-3.7,0.7-7.4,1.6-11,2.9c-7.1,2.5-13.6,6.6-18.2,12.4l0,0
		c-0.7,0.9-2,1.1-2.9,0.4c-0.8-0.7-1-1.8-0.5-2.7c4.5-7.1,11.6-12.5,19.1-16c3.8-1.8,7.7-3.1,11.7-4.3c4-1.1,8-1.9,12.1-2.6
		c8.1-1.2,16.3-1.7,24.5-1.7c4.1,0,8.2,0.2,12.2,0.4c2,0.1,4.1,0.3,6.1,0.5c2.1,0.2,4,0.4,6.2,0.7c3.6,0.5,6,3.8,5.5,7.4
		s-3.8,6-7.4,5.5C142.1,206.7,141.9,206.7,141.7,206.6L141.7,206.6z"/>
</g>
<g>
	<path class="st0" d="M243.7,190.2c2.2-0.4,4.2-0.7,6.3-0.9c2.1-0.3,4.1-0.5,6.2-0.7c4.1-0.4,8.3-0.6,12.4-0.8
		c8.3-0.3,16.6,0,25,0.9c4.2,0.5,8.3,1.2,12.4,2.2c4.1,1,8.1,2.3,12,3.9c3.9,1.6,7.7,3.8,11.1,6.4c3.4,2.6,6.4,5.8,8.7,9.4
		c0.5,0.9,0.3,2-0.6,2.5c-0.8,0.5-1.9,0.3-2.4-0.4l0,0c-4.7-6-11.5-10-18.8-12.3c-3.7-1.2-7.5-2-11.3-2.5c-3.8-0.5-7.7-0.8-11.6-0.9
		c-7.8-0.2-15.7,0.4-23.5,1.4c-3.9,0.5-7.8,1.1-11.7,1.9c-1.9,0.4-3.9,0.8-5.8,1.2c-1.9,0.4-3.9,0.9-5.6,1.4l0,0
		c-3.5,0.9-7-1.1-8-4.6c-0.9-3.5,1.1-7,4.6-8C243.3,190.3,243.5,190.2,243.7,190.2z"/>
</g>
<g>
	<path class="st0" d="M69.3,396c-2.7,0.3-5.5,0.5-8.2,0.4c-2.8,0-5.5-0.3-8.3-0.7c-5.5-0.8-10.9-2.2-16.2-4.3
		c-5.3-2.1-10.3-4.8-15-8.2c-4.7-3.4-9-7.7-12.1-12.7c-3.2-5-5.6-10.5-7.1-16.2c-1.5-5.7-2.2-11.5-2.3-17.2
		c-0.3-11.4,1.4-22.5,3.1-33.2C5,293.3,7,282.8,7.8,272.5c0.2-2.6,0.3-5,0.3-7.7c0-1.3,0-2.6,0-3.9c0-1.3,0-2.6-0.1-3.9
		c-0.2-5.2-0.6-10.4-1.1-15.7c-1-10.5-2.8-21-4.1-31.9c-0.7-5.4-1.3-10.9-1.6-16.4c-0.4-5.6-0.5-11.2-0.3-16.8
		c0.4-11.3,2.2-22.7,5.7-33.6c3.5-10.8,7.9-21,13.2-30.8c5.3-9.8,11.3-19.1,18-28c6.7-8.8,14.1-17.1,22-24.8c4-3.8,8.1-7.5,12.5-11
		c4.3-3.5,8.8-6.7,13.4-9.8c4.6-3,9.4-5.9,14.3-8.4c4.9-2.5,10-4.7,15.2-6.7c10.4-3.8,21.4-6.2,32.4-6.7c11-0.5,22.1,1,32.4,4.4
		c0.4,0.1,0.6,0.5,0.4,0.9c-0.1,0.3-0.5,0.5-0.8,0.5c-10.5-2-21.2-2.4-31.6-0.9c-5.2,0.7-10.3,1.8-15.4,3.3c-5,1.5-9.9,3.3-14.7,5.5
		c-4.8,2.2-9.4,4.6-13.9,7.3c-4.5,2.7-8.8,5.6-13,8.7C83,52.4,75.2,59.5,68,67.1c-14.4,15.2-26.5,32.6-35.9,51.1
		c-2.3,4.7-4.5,9.4-6.5,14.2c-2,4.8-3.7,9.7-5.2,14.5c-1.5,4.8-2.6,9.8-3.5,14.7c-0.8,5-1.3,10-1.5,15.1c-0.9,20.4,3,41.5,4.6,63.5
		c0.4,5.5,0.6,11,0.7,16.6c0,1.4,0,2.8,0,4.2c0,1.4,0,2.8-0.1,4.2c-0.1,2.8-0.3,5.7-0.6,8.5c-1.2,11.2-3.6,21.8-5.6,32.3
		c-2,10.5-3.7,20.8-3.6,31c0,5.1,0.5,10,1.7,14.8c1.2,4.7,3,9.3,5.5,13.4c2.6,4.1,5.6,7.9,9.2,11.4c3.6,3.5,7.7,6.5,12.2,9
		c8.9,5.2,19.2,8.3,29.8,9.1l0,0c0.4,0,0.7,0.4,0.7,0.7C69.8,395.7,69.6,396,69.3,396z"/>
</g>
<path class="st3" d="M111.4,257.5c0,0-10.9,6.2-28.4,2.8"/>
<path class="st3" d="M276.1,255.7c0,0,11.1,5.8,28.5,2"/>
<path class="st2" d="M54.1,228.8l5.4,4.7c7.7-6.8,17.4-13.5,27.7-14.6c8.5-0.9,18.7,0.9,23.9,8.4c1.3,1.8,2.2,3.9,2.8,5.9"/>
<circle class="st4" cx="97.8" cy="240.3" r="4"/>
<circle class="st4" cx="288.8" cy="237.3" r="4"/>
<path d="M494.9,285.1c-7.3-4.6-11-11.7-11-21.2c0-5,0.9-8.9,2.6-11.5c1.7-2.6,4.3-4,7.7-4c2.5,0,4.5,0.6,6,1.9
	c1.6,1.3,2.3,2.9,2.3,4.9c0,1.8-0.1,3.4-0.4,4.8c0,0.4-0.1,1-0.2,1.9c-0.1,0.9-0.2,1.9-0.2,2.9c0,4.1,2.1,7.2,6.2,9.2
	c4.2,2,10,3,17.5,3c7.8,0,13.8-1.4,18.2-4.2c4.4-2.8,6.6-6.7,6.6-11.7c0-3.1-1-5.8-3-8c-2-2.2-4.5-4.1-7.5-5.6
	c-3-1.5-7.3-3.4-12.7-5.6c-7-2.7-12.8-5.3-17.2-7.8c-4.4-2.5-8.2-5.8-11.4-10.1s-4.7-9.5-4.7-15.8c0-6.6,1.8-12.4,5.3-17.5
	c3.5-5.1,8.6-9.1,15.2-11.9c6.6-2.8,14.4-4.3,23.4-4.3c6.7,0,12.8,1,18.4,2.9c5.6,2,10,5,13.4,9c3.3,4,5,9,5,14.8
	c0,5.8-0.9,10.1-2.6,13c-1.7,2.9-4.3,4.4-7.7,4.4c-2.4,0-4.4-0.7-6-2.2c-1.6-1.5-2.4-3.2-2.4-5.2c0-1.7,0.1-3.3,0.4-4.8
	c0.3-2.7,0.4-4.5,0.4-5.2c0-3.8-1.9-6.8-5.6-8.8c-3.7-2-8.4-3-14-3c-7.9,0-13.9,1.4-18,4.3c-4.2,2.9-6.2,6.9-6.2,12.1
	c0,3.5,1.1,6.4,3.2,8.9c2.1,2.5,4.8,4.5,8,6.2c3.2,1.6,7.7,3.6,13.4,5.9c6.9,2.8,12.5,5.4,16.7,7.7c4.2,2.3,7.8,5.4,10.8,9.3
	c3,3.9,4.5,8.8,4.5,14.5c0,10.8-4.1,19.1-12.3,24.9c-8.2,5.8-19.1,8.7-32.8,8.7C512,292.1,502.3,289.7,494.9,285.1z"/>
<path d="M681.3,265.2c1.5,0,2.6,0.5,3.3,1.6c0.7,1.1,1.1,2.5,1.1,4.3c0,2.7-0.7,5.1-2,7c-1.3,1.9-3.6,3.7-6.8,5.2
	c-5.4,2.6-12.4,4.6-21,6.1c-8.6,1.5-17,2.3-25.4,2.3c-11.5,0-21.2-1.3-28.9-3.9c-7.8-2.6-13.5-6.2-17.3-10.8
	c-3.8-4.6-5.7-9.7-5.7-15.5c0-7.9,2.5-14.6,7.6-20.1c5.1-5.5,12.5-9.5,22.4-12c-5.4-1.6-9.5-4.3-12.4-8.2c-2.9-3.9-4.3-8.3-4.3-13.2
	c0-6.6,2.1-12.4,6.2-17.5c4.2-5.1,9.8-9,16.8-11.7c7-2.7,14.8-4.1,23.2-4.1c11.3,0,19.8,2.4,25.5,7.3c5.7,4.9,8.5,11.2,8.5,19
	c0,5.4-1,9.8-2.9,13.1c-2,3.3-4.8,5-8.4,5c-2.6,0-4.6-0.6-6-1.7c-1.5-1.1-2.2-2.9-2.2-5.1c0-1.6,0.2-3.2,0.7-5.1
	c0.5-3,0.7-5.1,0.7-6.2c0-3.3-1.2-6-3.7-8c-2.5-2.1-6.6-3.1-12.3-3.1c-7.8,0-14,1.6-18.6,4.9s-7,7.7-7,13.3c0,4.3,1.8,7.8,5.3,10.6
	c3.5,2.8,9.3,4.3,17.2,4.6c2,0.1,3.4,0.5,4.3,1.4c0.8,0.8,1.2,2.2,1.2,4.1c0,6-2.7,9.1-8.2,9.2c-7.6,0.2-13.9,1.2-18.8,3.2
	c-5,1.9-8.6,4.4-10.8,7.3c-2.2,3-3.4,6.1-3.4,9.5c0,5.7,2.6,9.9,8,12.8c5.3,2.9,13.7,4.3,25.2,4.3c7.6,0,15.6-0.9,24.1-2.7
	c8.5-1.8,15.7-4,21.7-6.5C679.2,265.5,680.3,265.2,681.3,265.2z"/>
<path d="M698.5,286.2c-6.5-3.7-11.7-9-15.6-16.1c-3.8-7.1-5.8-15.6-5.8-25.4c0-13.9,2.5-26.1,7.6-36.7c5.1-10.6,12-18.8,20.7-24.5
	c8.7-5.8,18.4-8.6,29-8.6c8.1,0,15.5,1.8,22,5.5c6.5,3.7,11.7,9,15.6,16.1c3.8,7.1,5.8,15.6,5.8,25.4c0,13.9-2.5,26.1-7.6,36.7
	c-5.1,10.6-12,18.8-20.7,24.5c-8.7,5.8-18.4,8.6-29,8.6C712.3,291.6,705,289.8,698.5,286.2z M740.7,268.9
	c5.4-4.4,9.6-10.5,12.5-18.3c2.9-7.8,4.4-16.7,4.4-26.5c0-10.9-2.3-19.1-6.9-24.7c-4.6-5.6-10.5-8.4-17.7-8.4
	c-7,0-13.3,2.2-18.6,6.5c-5.4,4.3-9.6,10.4-12.6,18.2c-3,7.8-4.5,16.7-4.5,26.7c0,10.9,2.3,19.1,6.9,24.7c4.6,5.6,10.5,8.4,17.7,8.4
	C729,275.5,735.2,273.3,740.7,268.9z"/>
<path d="M797.3,286.2c-6.5-3.7-11.7-9-15.6-16.1c-3.8-7.1-5.8-15.6-5.8-25.4c0-13.9,2.5-26.1,7.6-36.7c5.1-10.6,12-18.8,20.7-24.5
	c8.7-5.8,18.4-8.6,29-8.6c8.1,0,15.5,1.8,22,5.5c6.5,3.7,11.7,9,15.6,16.1c3.8,7.1,5.8,15.6,5.8,25.4c0,13.9-2.5,26.1-7.6,36.7
	c-5.1,10.6-12,18.8-20.7,24.5c-8.7,5.8-18.4,8.6-29,8.6C811.2,291.6,803.9,289.8,797.3,286.2z M839.5,268.9
	c5.4-4.4,9.6-10.5,12.5-18.3c2.9-7.8,4.4-16.7,4.4-26.5c0-10.9-2.3-19.1-6.9-24.7c-4.6-5.6-10.5-8.4-17.7-8.4
	c-7,0-13.3,2.2-18.6,6.5c-5.4,4.3-9.6,10.4-12.6,18.2c-3,7.8-4.5,16.7-4.5,26.7c0,10.9,2.3,19.1,6.9,24.7c4.6,5.6,10.5,8.4,17.7,8.4
	C827.8,275.5,834.1,273.3,839.5,268.9z"/>
</svg>
