<svg id="Layer_1" data-name="Layer 1" xmlns="http://www.w3.org/2000/svg" viewBox="0 0 894.64 495.99"><defs><style>.cls-1{fill:#231f20;}.cls-2,.cls-3,.cls-4{fill:none;}.cls-2,.cls-3,.cls-4,.cls-5{stroke:#231f20;stroke-linecap:round;}.cls-2,.cls-3{stroke-miterlimit:10;}.cls-2{stroke-width:3px;}.cls-3{stroke-width:4px;}.cls-4,.cls-5{stroke-linejoin:round;}.cls-5{fill:#fff;}</style></defs><title>logo</title><path class="cls-1" d="M206,2.31,207.5,2l1.33-.21,2.61-.37Q214,1.12,216.6.87q5.15-.5,10.27-.71a198.85,198.85,0,0,1,20.49.21,186.53,186.53,0,0,1,40.36,6.89,160.3,160.3,0,0,1,37.71,16.27,150.12,150.12,0,0,1,32,25.64A166.41,166.41,0,0,1,381.6,82a210,210,0,0,1,16.22,37,275,275,0,0,1,9.67,38.87,364.89,364.89,0,0,1,4.69,39.55,537.53,537.53,0,0,1-1.12,79.17c-2.2,26.26-5.84,52.34-10.49,78.21l-1.79,9.69c-.64,3.26-1.23,6.46-1.92,9.77-1.51,6.24-2.68,12.67-3.62,19.09a200.84,200.84,0,0,0-2.11,38.83,123.52,123.52,0,0,0,2.45,19.24,77.61,77.61,0,0,0,6.18,18.28,51.38,51.38,0,0,0,11.4,15.41,46.84,46.84,0,0,0,16.61,9.65.63.63,0,0,1-.38,1.19A48.35,48.35,0,0,1,410,486.44a53.39,53.39,0,0,1-12.25-15.7,80.1,80.1,0,0,1-6.86-18.7,126.51,126.51,0,0,1-3-19.65A204.55,204.55,0,0,1,389,392.79c.79-6.57,1.8-13.08,3.2-19.62l1.63-9.56,1.54-9.68c4-25.83,7-51.81,8.48-77.84a529.39,529.39,0,0,0-.82-77.94q-.9-9.68-2.23-19.29t-3.29-19.09a264.39,264.39,0,0,0-10.22-37.13,198.44,198.44,0,0,0-16.16-34.53,153.8,153.8,0,0,0-23-29.8A136.51,136.51,0,0,0,318.36,35.7,145.74,145.74,0,0,0,283.7,21.77a171,171,0,0,0-37.15-5.38,182.61,182.61,0,0,0-18.81.27c-3.12.2-6.24.5-9.32.87-1.54.19-3.07.4-4.59.64l-2.25.38-1.09.2-1,.2-.29.06a8.5,8.5,0,0,1-3.42-16.65Z" transform="translate(0 0)"/><path class="cls-1" d="M182,81.31a27.28,27.28,0,0,0-15.52,2.82,57.86,57.86,0,0,0-15,11.06,138.29,138.29,0,0,0-13.34,15.53c-2.12,2.81-4.2,5.69-6.32,8.66l-3.28,4.52c-1.15,1.54-2.31,3.09-3.81,4.82-.34.39-.87,1-1.15,1.25l-1,1-2,2c-1.37,1.33-2.75,2.64-4.16,3.93-2.82,2.57-5.72,5.05-8.73,7.41s-6.09,4.62-9.28,6.73c-.8.53-1.59,1.06-2.4,1.56l-2.33,1.48q-2.26,1.41-4.51,2.88c-12,7.81-23.84,16.24-35.43,24.8h0l1.16-1.32c-1.82,3-3.85,6-5.43,8.66a90,90,0,0,0-4.35,8.77q-4.15,9.24-7.57,18.77C35.25,223,33.26,229.45,31.59,236c-.82,3.26-1.6,6.53-2.25,9.83-.34,1.65-.61,3.26-.9,4.9s-.53,3.27-.69,4.93a126.36,126.36,0,0,0-.86,19.89,130.27,130.27,0,0,0,2.17,19.83,118.31,118.31,0,0,0,5.14,19.2A93.18,93.18,0,0,0,43,332.18a104.56,104.56,0,0,0,27.31,28.53,148.89,148.89,0,0,0,35.57,18.52,243.14,243.14,0,0,0,39.29,10.3,270.21,270.21,0,0,0,40.46,4.65,197.91,197.91,0,0,0,40.48-2.61A250.83,250.83,0,0,0,265.5,381.3a286.4,286.4,0,0,0,37.68-15.77,193.61,193.61,0,0,0,34.18-22,127.53,127.53,0,0,0,14.74-13.87,108.41,108.41,0,0,0,12-16.24,116.06,116.06,0,0,0,14.32-37.71,149.27,149.27,0,0,0,2.11-40.57,166.85,166.85,0,0,0-3-20.19,178.08,178.08,0,0,0-5.41-19.7h0l.86.92c-8.23-3.38-16.14-7.19-24-11.17s-15.61-8.22-23.24-12.64a525,525,0,0,1-44.47-28.78c-7.2-5.14-14.2-10.56-21.12-16.07s-13.65-11.29-20.28-17.18a472,472,0,0,1-37.61-37.74,6,6,0,0,1,9-8l.15.18,0,0a461.08,461.08,0,0,0,35.1,38.36q9.36,9.07,19.16,17.69c6.57,5.7,13.23,11.32,20.1,16.69a518.59,518.59,0,0,0,42.67,30.28q11,7,22.46,13.49c7.61,4.26,15.36,8.4,23.23,12l.07,0a1.49,1.49,0,0,1,.79.89h0c9.22,26.15,12.25,54.72,7.22,82.22a120.25,120.25,0,0,1-14.43,39.22,112.92,112.92,0,0,1-12.3,17.05,132,132,0,0,1-15.13,14.54,198.64,198.64,0,0,1-34.83,23,291.89,291.89,0,0,1-38.23,16.48,256.72,256.72,0,0,1-40.25,10.93,204.31,204.31,0,0,1-41.72,3.14,277.09,277.09,0,0,1-41.51-4.32,250.24,250.24,0,0,1-40.57-10.19,156.36,156.36,0,0,1-37.62-19.1A112.66,112.66,0,0,1,36,336.69a101.62,101.62,0,0,1-9.76-19.15A126.75,126.75,0,0,1,20.46,297a139.12,139.12,0,0,1-2.54-21.13,135.43,135.43,0,0,1,.7-21.31c.16-1.77.46-3.53.69-5.3s.58-3.53.91-5.26c.65-3.46,1.43-6.89,2.25-10.31,1.67-6.83,3.68-13.57,6-20.2s4.85-13.16,7.65-19.58a99.2,99.2,0,0,1,4.73-9.76c1.89-3.27,3.73-6,5.44-8.89A4.67,4.67,0,0,1,47.31,174l.1-.08h0c11.19-9.49,22.47-18.72,34.27-27.6q2.21-1.66,4.47-3.3l2.17-1.59c.7-.5,1.38-1,2.07-1.55,2.74-2.1,5.38-4.32,7.95-6.63s5-4.73,7.43-7.22c1.2-1.24,2.37-2.52,3.52-3.81l1.71-2,.84-1c.33-.39.41-.49.65-.8.83-1.07,1.78-2.48,2.72-3.91l2.87-4.48c1.94-3.06,3.93-6.2,6-9.32a155.87,155.87,0,0,1,14-18.36,76.75,76.75,0,0,1,19.15-15.75,50.89,50.89,0,0,1,12.54-5,46.3,46.3,0,0,1,14-1.27H184a10.51,10.51,0,0,1-1.3,21Z" transform="translate(0 0)"/><circle class="cls-1" cx="97.56" cy="239.76" r="17.61"/><circle class="cls-1" cx="287.82" cy="236.56" r="17.61"/><path class="cls-1" d="M181.92,205.37a246.91,246.91,0,0,1,1.34,29.27q-.15,14.65-1.63,29.25c-.28,2.43-.49,4.86-.82,7.28l-1,7.26-1.16,7.22a19.58,19.58,0,0,0,.1,6.84,10.72,10.72,0,0,0,2.82,5.76,8,8,0,0,0,2.6,1.67,11.24,11.24,0,0,0,3.15.66,21.84,21.84,0,0,0,6.76-.85,51.57,51.57,0,0,0,6.65-2.42l0,0a1.5,1.5,0,1,1,1.18,2.76h0c-4.59,1.87-9.45,3.61-14.8,3.28a14,14,0,0,1-4-.9,10.74,10.74,0,0,1-3.47-2.3,13.28,13.28,0,0,1-3.45-7.19,22,22,0,0,1,0-7.7l1.27-7.18,1.08-7.2c.37-2.4.61-4.81.92-7.22q1.69-14.46,2.07-29.05a245.76,245.76,0,0,0-.88-29.09v0a.6.6,0,0,1,1.19-.13Z" transform="translate(0 0)"/><path class="cls-2" d="M285.35,332.49c-116.86,40.82-186.5,3.2-186.5,3.2l40.55-.62c7.63-.12,24.72.6,32.19,2.13l10.56,2.17a42.22,42.22,0,0,0,18.73-.4l19.89-3" transform="translate(0 0)"/><path class="cls-1" d="M129.74,352.31a142.53,142.53,0,0,0,13.88,4.17c4.69,1.18,9.43,2.17,14.19,3A179,179,0,0,0,186.62,362c4.82,0,9.63-.16,14.43-.6s9.58-1,14.3-2a133.93,133.93,0,0,0,14.05-3.37c4.67-1.27,9.17-3,13.71-4.74h0a.92.92,0,0,1,.75,1.69,113.65,113.65,0,0,1-27.81,10l-3.63.76-3.66.61c-1.22.22-2.45.38-3.67.53s-2.46.32-3.69.42a141.08,141.08,0,0,1-14.82.65,146.4,146.4,0,0,1-14.79-.87q-7.37-.78-14.62-2.28c-4.83-1-9.61-2.22-14.32-3.67A115.88,115.88,0,0,1,129,354a.92.92,0,0,1,.7-1.71Z" transform="translate(0 0)"/><path class="cls-3" d="M270.24,235a23.26,23.26,0,0,1,4-10.63,21.35,21.35,0,0,1,10.09-7.52c20.11-6.63,41.05,12.35,42.07,12.82l4.42-3.91" transform="translate(0 0)"/><path class="cls-1" d="M141.67,206.65c-1.68-.41-3.64-.81-5.49-1.17s-3.78-.69-5.68-1q-5.7-.91-11.47-1.47a149.73,149.73,0,0,0-23-.58,106.94,106.94,0,0,0-11.36,1.3,71.31,71.31,0,0,0-11,2.86A39.11,39.11,0,0,0,55.49,219l0,0a2.05,2.05,0,0,1-3.35-2.36c4.54-7.14,11.57-12.51,19.15-16A78.1,78.1,0,0,1,83,196.49a114.79,114.79,0,0,1,12.1-2.55,159.27,159.27,0,0,1,24.48-1.68q6.13,0,12.24.42,3.06.19,6.12.49c2.07.2,4,.41,6.25.73a6.51,6.51,0,1,1-1.87,12.88l-.6-.11Z" transform="translate(0 0)"/><path class="cls-1" d="M243.7,190.19c2.24-.38,4.23-.65,6.33-.91s4.14-.48,6.22-.67q6.21-.57,12.44-.79a164.3,164.3,0,0,1,25,.94A112.51,112.51,0,0,1,306,191a79.61,79.61,0,0,1,12,3.94,49.45,49.45,0,0,1,11.06,6.42,37.4,37.4,0,0,1,8.67,9.43,1.85,1.85,0,0,1-3,2.13l0,0c-4.71-6-11.52-10-18.81-12.32A73.11,73.11,0,0,0,304.67,198a104.84,104.84,0,0,0-11.64-.92,154.92,154.92,0,0,0-23.48,1.37q-5.85.76-11.65,1.87-2.9.55-5.76,1.19c-1.88.42-3.86.89-5.58,1.36h0a6.51,6.51,0,1,1-3.44-12.55C243.29,190.28,243.5,190.23,243.7,190.19Z" transform="translate(0 0)"/><path class="cls-1" d="M69.25,396a63.48,63.48,0,0,1-8.23.43,66.74,66.74,0,0,1-8.27-.69,73.9,73.9,0,0,1-16.21-4.27,65.77,65.77,0,0,1-15-8.24A46.06,46.06,0,0,1,9.45,370.51a56.16,56.16,0,0,1-7.09-16.21A75.1,75.1,0,0,1,0,337.13C-.25,325.7,1.4,314.68,3.17,304S7,282.77,7.85,272.53c.2-2.57.31-5,.31-7.66,0-1.3,0-2.6,0-3.9s0-2.6-.09-3.9c-.17-5.21-.56-10.43-1.1-15.67-1-10.48-2.75-21-4.08-31.87-.67-5.41-1.27-10.89-1.63-16.45S.77,181.91,1,176.26a125.37,125.37,0,0,1,5.69-33.62,184.83,184.83,0,0,1,13.22-30.8,213.72,213.72,0,0,1,18-28A209.47,209.47,0,0,1,59.9,59c4-3.83,8.15-7.51,12.46-11s8.81-6.73,13.44-9.77a156.67,156.67,0,0,1,14.34-8.42,138.35,138.35,0,0,1,15.25-6.65,108.06,108.06,0,0,1,32.43-6.67,90.83,90.83,0,0,1,32.41,4.39.7.7,0,0,1-.36,1.35,95.83,95.83,0,0,0-31.63-.93,97,97,0,0,0-15.35,3.33,116.37,116.37,0,0,0-14.68,5.47,135,135,0,0,0-13.86,7.3,147.53,147.53,0,0,0-13,8.73A185.58,185.58,0,0,0,68,67.1a217.45,217.45,0,0,0-35.88,51.12c-2.32,4.65-4.5,9.37-6.48,14.16s-3.74,9.69-5.19,14.54A115.7,115.7,0,0,0,17,161.67a129.59,129.59,0,0,0-1.52,15.14c-.9,20.42,3,41.52,4.57,63.47.39,5.48.64,11,.66,16.57,0,1.39,0,2.78,0,4.17s0,2.78-.12,4.18c-.08,2.75-.28,5.68-.59,8.46-1.24,11.22-3.63,21.83-5.59,32.31s-3.66,20.83-3.61,31a64.59,64.59,0,0,0,1.69,14.79A45.85,45.85,0,0,0,18,365.1a62.85,62.85,0,0,0,9.19,11.38,62,62,0,0,0,12.19,9,69.13,69.13,0,0,0,29.82,9.09h0a.7.7,0,0,1,0,1.4Z" transform="translate(0 0)"/><path class="cls-4" d="M111.38,257.49s-10.89,6.16-28.41,2.84" transform="translate(0 0)"/><path class="cls-4" d="M276.13,255.7s11.07,5.84,28.48,2" transform="translate(0 0)"/><path class="cls-3" d="M54.12,228.79l5.38,4.66c7.71-6.81,17.39-13.53,27.69-14.57,8.5-.86,18.65.88,23.87,8.36a22.48,22.48,0,0,1,2.83,5.95" transform="translate(0 0)"/><circle class="cls-5" cx="97.79" cy="240.29" r="4"/><circle class="cls-5" cx="288.79" cy="237.29" r="4"/><path d="M617.44,264.43a8.83,8.83,0,0,1,1.07,4.7q0,5.55-2.71,8.83-14.1,17.23-30,17.23-13.81,0-22.07-10.68t-8.26-30.62q0-4.84.43-9.68a201.66,201.66,0,0,1-20.51,2.56q-7.41.57-10.11.71-2.85,14.53-8,35.6-3,12.39-11.39,12.39-9.11,0-9.11-8.26a25.76,25.76,0,0,1,.71-5.13q4.84-19.51,7.69-33l-6.84.28q-4.7,0-6.84-1.64t-2.14-5.34q0-4.7,2.71-6.91t9-2.49l7.55-.29q3.7-20.08,3.7-30.62,0-6.69-2-9.11a6.49,6.49,0,0,0-5.27-2.42q-10,0-22.5,16.66a5.22,5.22,0,0,1-4.13,2.42,4.2,4.2,0,0,1-3.42-1.85,7.49,7.49,0,0,1-1.42-4.7q0-4.41,3.56-9.4a51.46,51.46,0,0,1,15.81-14.31,37.76,37.76,0,0,1,19.37-5.62q9.25,0,14.31,6.34t5.06,19.72q0,11.82-3.42,32l14-.71a147.57,147.57,0,0,0,15.38-1.42,147.63,147.63,0,0,1,7.83-29.34q5.27-13.67,13.1-22.22T596,169.59a13.22,13.22,0,0,1,11.25,5.63q4.13,5.63,4.13,14.74,0,35.32-36,49-.43,5.7-.43,11.82,0,15,3.7,21.22t10.4,6.27a19.57,19.57,0,0,0,10.68-3.06q4.84-3.06,11-10.47a5,5,0,0,1,3.85-2A3.29,3.29,0,0,1,617.44,264.43Zm-28.77-76.76a72.4,72.4,0,0,0-6.62,15.52,146,146,0,0,0-5,21.5q11.39-4.7,16.8-13.39T599.28,189a9.78,9.78,0,0,0-1.14-5.13A3.32,3.32,0,0,0,595.3,182Q592.16,182,588.67,187.67Z" transform="translate(0 0)"/><path d="M682.81,264.79a8.61,8.61,0,0,1,1.07,4.49,10.94,10.94,0,0,1-1,5.13,9.29,9.29,0,0,1-3.13,3.28L652.4,296Q647,325.53,638.23,342.4t-22.29,16.88a16.13,16.13,0,0,1-11.82-4.49A15.75,15.75,0,0,1,599.57,343a33.83,33.83,0,0,1,3.06-13.67q3.06-7,11.39-16t23.57-20.72l.43-3.28q1-5.27,2.28-15.1-2.85,10.25-8,15.59t-10.82,5.34q-6.41,0-10.47-5.91T607,274.55A124.27,124.27,0,0,1,608.4,255a122.63,122.63,0,0,1,4.7-18.87,11.91,11.91,0,0,1,4-6.12q2.56-1.85,8.12-1.85,3.13,0,4.34,1a3.66,3.66,0,0,1,1.21,3,59.29,59.29,0,0,1-1.57,7.69q-1.43,5.27-2.28,9.54-1.14,5.84-2,11.18a57.59,57.59,0,0,0-.85,8.76q0,5.41,3,5.41,2.14,0,5.34-4.27a62.81,62.81,0,0,0,6.84-13,173,173,0,0,0,7-21.36q1.14-4.27,3.49-6.12t7-1.85q3.27,0,4.56.85a3.17,3.17,0,0,1,1.28,2.85q0,3.56-3.7,24.5l-3.7,22.93q11-8.26,21.36-15.1a6.47,6.47,0,0,1,3.28-1.14A3.27,3.27,0,0,1,682.81,264.79Zm-57.32,72.42q4.41-8.26,8.83-27.49-11,9.26-15.88,16.88t-4.91,13.32a7.74,7.74,0,0,0,.93,4,3.28,3.28,0,0,0,3.06,1.57Q621.07,345.47,625.49,337.21Z" transform="translate(0 0)"/><path d="M729.09,268.71a8.83,8.83,0,0,1,1.07,4.7,15.78,15.78,0,0,1-2.42,8.83,27.73,27.73,0,0,1-10.47,9.54,32.7,32.7,0,0,1-15.45,3.42q-13.67,0-21.22-8.19T673,264.86a41.19,41.19,0,0,1,4.13-18.3,33.81,33.81,0,0,1,11.46-13.46,28.83,28.83,0,0,1,16.59-5q8.26,0,13.25,4.91t5,13.32a23,23,0,0,1-7,16.88q-7,7-24,11.18Q695.84,281,704,281a16.09,16.09,0,0,0,9.61-2.71,46.52,46.52,0,0,0,8.76-9.11,4.9,4.9,0,0,1,3.85-2.14A3.29,3.29,0,0,1,729.09,268.71ZM693.91,248.2A28.55,28.55,0,0,0,690.28,263v.29q8.4-2,13.24-6t4.84-9.26a6.2,6.2,0,0,0-1.5-4.34,5.23,5.23,0,0,0-4.06-1.64Q697.54,242.07,693.91,248.2Z" transform="translate(0 0)"/><path d="M847.29,264.79a8.61,8.61,0,0,1,1.07,4.49,10.94,10.94,0,0,1-1,5.13,9.29,9.29,0,0,1-3.13,3.28L816.89,296q-5.41,29.48-14.17,46.36t-22.29,16.88a16.13,16.13,0,0,1-11.82-4.49A15.75,15.75,0,0,1,764.05,343a33.83,33.83,0,0,1,3.06-13.67q3.06-7,11.39-16t23.57-20.72l.43-3.28q1-5.27,2.28-15.1-2.85,10.25-8,15.59T786,295.19q-6.41,0-10.47-5.91t-4.06-14.74A124.27,124.27,0,0,1,772.88,255a122.63,122.63,0,0,1,4.7-18.87,11.91,11.91,0,0,1,4-6.12q2.56-1.85,8.12-1.85,3.13,0,4.34,1a3.66,3.66,0,0,1,1.21,3,59.29,59.29,0,0,1-1.57,7.69q-1.43,5.27-2.28,9.54-1.14,5.84-2,11.18a57.59,57.59,0,0,0-.85,8.76q0,5.41,3,5.41,2.14,0,5.34-4.27a62.81,62.81,0,0,0,6.84-13,173,173,0,0,0,7-21.36q1.14-4.27,3.49-6.12t7-1.85q3.27,0,4.56.85a3.17,3.17,0,0,1,1.28,2.85q0,3.56-3.7,24.5l-3.7,22.93q11-8.26,21.36-15.1a6.47,6.47,0,0,1,3.28-1.14A3.27,3.27,0,0,1,847.29,264.79ZM790,337.21q4.41-8.26,8.83-27.49-11,9.26-15.88,16.88T778,339.91a7.74,7.74,0,0,0,.93,4,3.28,3.28,0,0,0,3.06,1.57Q785.55,345.47,790,337.21Z" transform="translate(0 0)"/><path d="M849.43,291a26.08,26.08,0,0,1-8.9-11,36.18,36.18,0,0,1-3-14.67,44.14,44.14,0,0,1,4.06-19.3,32.78,32.78,0,0,1,11-13.24A27.12,27.12,0,0,1,868.3,228a24.39,24.39,0,0,1,14.38,4.2,25.9,25.9,0,0,1,9,11,36.19,36.19,0,0,1,3,14.67,43.5,43.5,0,0,1-4.13,19.3,33.07,33.07,0,0,1-11.18,13.25,27.21,27.21,0,0,1-15.59,4.77A24,24,0,0,1,849.43,291Zm24.07-16.45q3.34-5.27,3.35-15.38,0-7.83-2.85-11.82t-6.84-4q-5.13,0-8.47,5.2T855.34,264q0,8.12,2.85,12a8.56,8.56,0,0,0,7.12,3.84Q870.15,279.81,873.49,274.55Z" transform="translate(0 0)"/></svg>