<?xml version="1.0" encoding="utf-8"?>
<!-- Generator: Adobe Illustrator 21.0.2, SVG Export Plug-In . SVG Version: 6.00 Build 0)  -->
<svg version="1.1" id="Layer_1" xmlns="http://www.w3.org/2000/svg" xmlns:xlink="http://www.w3.org/1999/xlink" x="0px" y="0px"
	 viewBox="0 0 295 54" style="enable-background:new 0 0 295 54;" xml:space="preserve">
<style type="text/css">
	.st0{fill:#FFFFFF;}
</style>
<g>
	<path class="st0" d="M27.2,29c-1.6,2-3.9,2.7-8.8,2.7H9.9v22.6H-0.1V0H20c0.3,0,1.6,0,2.7,0.2C25.9,0.9,27.5,3,28,4
		c1.2,2.3,1.2,5.8,1.2,8.2v7.2C29.2,24.4,28.9,26.9,27.2,29z M19.3,13.5c0-1.5,0.2-3.2-0.8-4.4C17.4,7.7,15.2,8,14.9,8H9.9v15.9h4.8
		c2.1,0,3.2-0.2,3.8-1.1c0.7-0.9,0.7-2.7,0.7-3.8V13.5z"/>
	<path class="st0" d="M58.5,51.8c-3.2,3-7.6,3.6-11.8,3.6c-4,0-8.1-0.5-11.3-3.2c-1.6-1.3-2.4-2.6-2.7-3.4c-0.9-1.9-1.2-4.2-1.2-6.2
		V12.2c0-1.2-0.2-6.6,3.4-9.8c2-1.8,5.8-3.5,11.8-3.5c7.8,0,12,3.2,13.6,6.4c0.8,1.8,1.2,3.5,1.2,7.2v30.2
		C61.6,46.1,61.1,49.3,58.5,51.8z M51.5,13.1c0-0.3,0.2-2.8-0.6-4.4c-0.5-1-1.6-2.4-4.2-2.4c-0.5,0-2,0.1-3.2,1
		c-2.2,1.5-1.9,3.9-1.9,6.2V41c0,1.6-0.1,3.6,0.9,5c1.2,1.6,3.6,1.6,4.1,1.6c0.5,0,1.9-0.1,3.2-0.9c1.8-1.3,1.8-3.5,1.8-5.5V13.1z"
		/>
	<path class="st0" d="M85.7,54.3c-0.2-0.3-0.3-0.5-0.5-0.8c-0.4-0.8-1-2.2-1-4.4V36.7c0-0.8,0-1.7-0.1-2.6c-0.3-3-2.5-3.7-5.2-3.7
		h-4.8v23.9h-10V0h20c2.4,0,4.6,0.2,6.6,1.8c3.2,2.4,3.2,6.2,3.2,9.7v5.8c0,0.4,0.1,3.8-1.1,5.8c-0.2,0.2-0.5,0.9-1.2,1.5
		c-1.1,0.9-2.2,1.3-4.8,1.9c0.2,0,1.9,0.5,3,1.1c4.3,2.3,4.4,6.9,4.4,8.4V47c0,0.2-0.2,4.3,1.4,6.4c0.2,0.4,0.5,0.5,0.9,0.8H85.7z
		 M84.1,12.2c0-2.1-0.3-2.8-1.2-3.6c-1.1-0.9-2.2-0.8-3.5-0.8h-5.2v14.8h5.2c1.3,0,2.8-0.2,3.8-1.3c0.8-0.9,0.8-1.7,0.8-3.8V12.2z"
		/>
	<path class="st0" d="M114.4,7.8v46.5h-10.1V7.8h-10V0h30.2v7.8H114.4z"/>
	<path class="st0" d="M135.5,8.4V22H151V30h-15.5v24.2h-10.1V0H152v8.4H135.5z"/>
	<path class="st0" d="M179.2,51.8c-3.2,3-7.6,3.6-11.8,3.6c-4,0-8.1-0.5-11.3-3.2c-1.6-1.3-2.4-2.6-2.7-3.4
		c-0.9-1.9-1.2-4.2-1.2-6.2V12.2c0-1.2-0.2-6.6,3.4-9.8c2-1.8,5.8-3.5,11.8-3.5c7.8,0,12,3.2,13.6,6.4c0.8,1.8,1.2,3.5,1.2,7.2v30.2
		C182.4,46.1,181.8,49.3,179.2,51.8z M172.3,13.1c0-0.3,0.2-2.8-0.6-4.4c-0.5-1-1.6-2.4-4.2-2.4c-0.5,0-2,0.1-3.2,1
		c-2.2,1.5-1.9,3.9-1.9,6.2V41c0,1.6-0.1,3.6,0.9,5c1.2,1.6,3.6,1.6,4.1,1.6c0.5,0,1.9-0.1,3.2-0.9c1.8-1.3,1.8-3.5,1.8-5.5V13.1z"
		/>
	<path class="st0" d="M185,54.3V0h10V46h14.7v8.2H185z"/>
	<path class="st0" d="M210.8,54.3V0h9.9v54.3H210.8z"/>
	<path class="st0" d="M250.2,51.8c-3.2,3-7.6,3.6-11.8,3.6c-4,0-8.1-0.5-11.3-3.2c-1.6-1.3-2.4-2.6-2.7-3.4
		c-0.9-1.9-1.2-4.2-1.2-6.2V12.2c0-1.2-0.2-6.6,3.4-9.8c2-1.8,5.8-3.5,11.8-3.5c7.8,0,12,3.2,13.6,6.4c0.8,1.8,1.2,3.5,1.2,7.2v30.2
		C253.4,46.1,252.8,49.3,250.2,51.8z M243.3,13.1c0-0.3,0.2-2.8-0.6-4.4c-0.5-1-1.6-2.4-4.2-2.4c-0.5,0-2,0.1-3.2,1
		c-2.2,1.5-1.9,3.9-1.9,6.2V41c0,1.6-0.1,3.6,0.9,5c1.2,1.6,3.6,1.6,4.1,1.6c0.5,0,1.9-0.1,3.2-0.9c1.8-1.3,1.8-3.5,1.8-5.5V13.1z"
		/>
</g>
</svg>
